<?xml version="1.0" encoding="UTF-8"?>
<svg width="23px" height="29px" viewBox="0 0 23 29" version="1.1" xmlns="http://www.w3.org/2000/svg" xmlns:xlink="http://www.w3.org/1999/xlink">
    <!-- Generator: Sketch 45.2 (43514) - http://www.bohemiancoding.com/sketch -->
    <title>invoice</title>
    <desc>Created with Sketch.</desc>
    <defs></defs>
    <g id="Super-Admin-Layout" stroke="none" stroke-width="1" fill="none" fill-rule="evenodd">
        <g id="S.A-Dashboard" transform="translate(-62.000000, -395.000000)" fill-rule="nonzero">
            <g id="1" transform="translate(-4.000000, 70.000000)">
                <g id="invoice" transform="translate(66.000000, 325.000000)">
                    <path d="M20.5375,0.454479798 C20.5375,1.22612879 20.0065,1.81323232 19.3,1.81323232 C18.6397143,1.81323232 18.0625,1.22620202 18.0625,0.454479798 L16.5664286,0.454479798 C16.5664286,1.22612879 16.0354286,1.81323232 15.3289286,1.81323232 C14.6686429,1.81323232 14.0914286,1.22620202 14.0914286,0.454479798 L12.5907143,0.454479798 C12.5907143,1.22612879 12.0597143,1.81323232 11.3532143,1.81323232 C10.6929286,1.81323232 10.1157143,1.22620202 10.1157143,0.454479798 L8.615,0.454479798 C8.615,1.22612879 8.084,1.81323232 7.3775,1.81323232 C6.671,1.81323232 6.14,1.22620202 6.14,0.454479798 L4.63928571,0.454479798 C4.63928571,1.22612879 4.10828571,1.81323232 3.40178571,1.81323232 C2.7415,1.81323232 2.16428571,1.22620202 2.16428571,0.454479798 L0.446285714,0.454479798 L0.446285714,28.5236237 L2.16864286,28.5236237 C2.16864286,27.7519747 2.69964286,27.1648712 3.40614286,27.1648712 C4.06642857,27.1648712 4.64364286,27.7519015 4.64364286,28.5236237 L6.14435714,28.5236237 C6.14435714,27.7519747 6.67535714,27.1648712 7.38185714,27.1648712 C8.08835714,27.1648712 8.61935714,27.7519015 8.61935714,28.5236237 L10.1200714,28.5236237 C10.1200714,27.7519747 10.6510714,27.1648712 11.3575714,27.1648712 C12.0178571,27.1648712 12.5950714,27.7519015 12.5950714,28.5236237 L14.0957857,28.5236237 C14.0957857,27.7519747 14.6267857,27.1648712 15.3332857,27.1648712 C15.9935714,27.1648712 16.5707857,27.7519015 16.5707857,28.5236237 L18.0715,28.5236237 C18.0715,27.7519747 18.6025,27.1648712 19.309,27.1648712 C19.9692857,27.1648712 20.5465,27.7519015 20.5465,28.5236237 L22.5320714,28.5236237 L22.5320714,0.454479798 L20.5375,0.454479798 Z" id="Shape" stroke="#193651" stroke-width="0.726" fill="#FFFFFF"></path>
                    <path d="M17.3144286,26.2559116 C16.7834286,25.7115025 16.0769286,25.3517121 15.3288571,25.3517121 C14.5807857,25.3517121 13.8697143,25.7115025 13.3432857,26.2559116 C12.8122857,25.7115025 12.1057857,25.3517121 11.3577143,25.3517121 C10.6096429,25.3517121 9.89857143,25.7115025 9.37214286,26.2559116 C8.84114286,25.7115025 8.13464286,25.3517121 7.38657143,25.3517121 C6.6385,25.3517121 5.92742857,25.7115025 5.401,26.2559116 C4.87,25.7115025 4.1635,25.3517121 3.41542857,25.3517121 C2.93057143,25.3517121 2.48728571,25.4890227 2.09014286,25.7115025 L2.09014286,3.25715404 C2.48728571,3.48439394 2.93057143,3.62170455 3.41542857,3.62170455 C4.16807143,3.62170455 4.87457143,3.30453535 5.401,2.71750505 C5.932,3.26191414 6.6385,3.62170455 7.38657143,3.62170455 C8.13464286,3.62170455 8.84571429,3.30453535 9.37214286,2.71750505 C9.90314286,3.26191414 10.6096429,3.62170455 11.3577143,3.62170455 C12.1057857,3.62170455 12.8168571,3.30453535 13.3432857,2.71750505 C13.8742857,3.26191414 14.5807857,3.62170455 15.3288571,3.62170455 C16.0769286,3.62170455 16.788,3.30453535 17.3144286,2.71750505 C17.8454286,3.26191414 18.5519286,3.62170455 19.3,3.62170455 C19.8725714,3.62170455 20.4497857,3.44177273 20.8884286,3.07729545 L20.8884286,25.8488131 C20.4451429,25.5316439 19.8725714,25.304404 19.3,25.304404 C18.5519286,25.3517121 17.8454286,25.7115025 17.3144286,26.2559116 Z" id="SVGCleanerId_0" fill="#FDBF5E"></path>
                    <path d="M20.5375,0.454479798 C20.5375,1.22612879 20.0065,1.81323232 19.3,1.81323232 C18.6397143,1.81323232 18.0625,1.22620202 18.0625,0.454479798 L16.5664286,0.454479798 C16.5664286,1.22612879 16.0354286,1.81323232 15.3289286,1.81323232 C14.6686429,1.81323232 14.0914286,1.22620202 14.0914286,0.454479798 L12.5907143,0.454479798 C12.5907143,1.22612879 12.0597143,1.81323232 11.3532143,1.81323232 C10.6929286,1.81323232 10.1157143,1.22620202 10.1157143,0.454479798 L8.615,0.454479798 C8.615,1.22612879 8.084,1.81323232 7.3775,1.81323232 C6.671,1.81323232 6.14,1.22620202 6.14,0.454479798 L4.63928571,0.454479798 C4.63928571,1.22612879 4.10828571,1.81323232 3.40178571,1.81323232 C2.7415,1.81323232 2.16428571,1.22620202 2.16428571,0.454479798 L0.446285714,0.454479798 L0.446285714,28.5236237 L2.16864286,28.5236237 C2.16864286,27.7519747 2.69964286,27.1648712 3.40614286,27.1648712 C4.06642857,27.1648712 4.64364286,27.7519015 4.64364286,28.5236237 L6.14435714,28.5236237 C6.14435714,27.7519747 6.67535714,27.1648712 7.38185714,27.1648712 C8.08835714,27.1648712 8.61935714,27.7519015 8.61935714,28.5236237 L10.1200714,28.5236237 C10.1200714,27.7519747 10.6510714,27.1648712 11.3575714,27.1648712 C12.0178571,27.1648712 12.5950714,27.7519015 12.5950714,28.5236237 L14.0957857,28.5236237 C14.0957857,27.7519747 14.6267857,27.1648712 15.3332857,27.1648712 C15.9935714,27.1648712 16.5707857,27.7519015 16.5707857,28.5236237 L18.0715,28.5236237 C18.0715,27.7519747 18.6025,27.1648712 19.309,27.1648712 C19.9692857,27.1648712 20.5465,27.7519015 20.5465,28.5236237 L22.5320714,28.5236237 L22.5320714,0.454479798 L20.5375,0.454479798 Z" id="Shape" fill="#FFFFFF"></path>
                    <path d="M20.0942143,28.9733434 L20.0942143,28.5188636 C20.0942143,28.0217626 19.7432857,27.6146641 19.3,27.6146641 C18.8567143,27.6146641 18.5057857,28.0218359 18.5057857,28.5188636 L18.5057857,28.9733434 L16.1230714,28.9733434 L16.1230714,28.5188636 C16.1230714,28.0217626 15.7721429,27.6146641 15.3288571,27.6146641 C14.8855714,27.6146641 14.5346429,28.0218359 14.5346429,28.5188636 L14.5346429,28.9733434 L12.1519286,28.9733434 L12.1519286,28.5188636 C12.1519286,28.0217626 11.801,27.6146641 11.3577143,27.6146641 C10.9144286,27.6146641 10.5635,28.0218359 10.5635,28.5188636 L10.5635,28.9733434 L8.18078571,28.9733434 L8.18078571,28.5188636 C8.18078571,28.0217626 7.82985714,27.6146641 7.38657143,27.6146641 C6.94328571,27.6146641 6.59235714,28.0218359 6.59235714,28.5188636 L6.59235714,28.9733434 L4.20964286,28.9733434 L4.20964286,28.5188636 C4.20964286,28.0217626 3.85871429,27.6146641 3.41542857,27.6146641 C2.97214286,27.6146641 2.62121429,28.0218359 2.62121429,28.5188636 L2.62121429,28.9733434 L0.00764285714,28.9733434 L0.00764285714,0 L2.612,0 L2.612,0.454479798 C2.612,0.951580808 2.96757143,1.35867929 3.40621429,1.35867929 C3.84485714,1.35867929 4.20042857,0.951507576 4.20042857,0.454479798 L4.20042857,0 L6.58314286,0 L6.58314286,0.454479798 C6.58314286,0.951580808 6.93407143,1.35867929 7.37735714,1.35867929 C7.82064286,1.35867929 8.17157143,0.951507576 8.17157143,0.454479798 L8.17157143,0 L10.5542857,0 L10.5542857,0.454479798 C10.5542857,0.951580808 10.9052143,1.35867929 11.3485,1.35867929 C11.7917857,1.35867929 12.1427143,0.951507576 12.1427143,0.454479798 L12.1427143,0 L14.5346429,0 L14.5346429,0.454479798 C14.5346429,0.951580808 14.8855714,1.35867929 15.3288571,1.35867929 C15.7721429,1.35867929 16.1230714,0.951507576 16.1230714,0.454479798 L16.1230714,0 L18.5057857,0 L18.5057857,0.454479798 C18.5057857,0.951580808 18.8567143,1.35867929 19.3,1.35867929 C19.7432857,1.35867929 20.0942143,0.951507576 20.0942143,0.454479798 L20.0942143,0 L22.9663571,0 L22.9663571,28.9733434 L20.0942143,28.9733434 Z M20.9346429,28.0691439 L22.0844286,28.0691439 L22.0844286,0.904199495 L20.9346429,0.904199495 C20.7591429,1.67584848 20.0942143,2.26295202 19.3,2.26295202 C18.5057857,2.26295202 17.887,1.67592172 17.6653571,0.904199495 L16.9127143,0.904199495 C16.7372143,1.67584848 16.0722857,2.26295202 15.2780714,2.26295202 C14.4838571,2.26295202 13.8650714,1.67592172 13.6434286,0.904199495 L12.8907857,0.904199495 C12.7152857,1.67584848 12.0503571,2.26295202 11.2561429,2.26295202 C10.4619286,2.26295202 9.84314286,1.67592172 9.6215,0.904199495 L8.86885714,0.904199495 C8.69335714,1.67584848 8.02842857,2.26295202 7.23421429,2.26295202 C6.44,2.26295202 5.82121429,1.67592172 5.59957143,0.904199495 L4.84692857,0.904199495 C4.67142857,1.67592172 4.0065,2.26295202 3.21228571,2.26295202 C2.41807143,2.26295202 1.79928571,1.67592172 1.57764286,0.904199495 L0.889642857,0.904199495 L0.889642857,28.0690707 L1.81778571,28.0690707 C1.99328571,27.2974217 2.65821429,26.7103182 3.45242857,26.7103182 C4.24664286,26.7103182 4.86542857,27.2973485 5.08707143,28.0690707 L5.83971429,28.0690707 C6.01521429,27.2974217 6.68014286,26.7103182 7.47435714,26.7103182 C8.26857143,26.7103182 8.88735714,27.2973485 9.109,28.0690707 L9.86164286,28.0690707 C10.0371429,27.2974217 10.7020714,26.7103182 11.4962857,26.7103182 C12.2905,26.7103182 12.9092857,27.2973485 13.1309286,28.0690707 L13.8835714,28.0690707 C14.0590714,27.2974217 14.724,26.7103182 15.5182143,26.7103182 C16.3124286,26.7103182 16.9312143,27.2973485 17.1528571,28.0690707 L17.9055,28.0690707 C18.081,27.2974217 18.7459286,26.7103182 19.5401429,26.7103182 C20.3343571,26.7103182 20.7175714,27.2974217 20.9346429,28.0691439 Z" id="Shape" fill-opacity="0.475798234" fill="#193651"></path>
                    <path d="M17.3144286,26.2559116 C16.7834286,25.7115025 16.0769286,25.3517121 15.3288571,25.3517121 C14.5807857,25.3517121 13.8697143,25.7115025 13.3432857,26.2559116 C12.8122857,25.7115025 12.1057857,25.3517121 11.3577143,25.3517121 C10.6096429,25.3517121 9.89857143,25.7115025 9.37214286,26.2559116 C8.84114286,25.7115025 8.13464286,25.3517121 7.38657143,25.3517121 C6.6385,25.3517121 5.92742857,25.7115025 5.401,26.2559116 C4.87,25.7115025 4.1635,25.3517121 3.41542857,25.3517121 C2.93057143,25.3517121 2.48728571,25.4890227 2.09014286,25.7115025 L2.09014286,3.25715404 C2.48728571,3.48439394 2.93057143,3.62170455 3.41542857,3.62170455 C4.16807143,3.62170455 4.87457143,3.30453535 5.401,2.71750505 C5.932,3.26191414 6.6385,3.62170455 7.38657143,3.62170455 C8.13464286,3.62170455 8.84571429,3.30453535 9.37214286,2.71750505 C9.90314286,3.26191414 10.6096429,3.62170455 11.3577143,3.62170455 C12.1057857,3.62170455 12.8168571,3.30453535 13.3432857,2.71750505 C13.8742857,3.26191414 14.5807857,3.62170455 15.3288571,3.62170455 C16.0769286,3.62170455 16.788,3.30453535 17.3144286,2.71750505 C17.8454286,3.26191414 18.5519286,3.62170455 19.3,3.62170455 C19.8725714,3.62170455 20.4497857,3.44177273 20.8884286,3.07729545 L20.8884286,25.8488131 C20.4451429,25.5316439 19.8725714,25.304404 19.3,25.304404 C18.5519286,25.3517121 17.8454286,25.7115025 17.3144286,26.2559116 Z" id="SVGCleanerId_0_1_" fill="#FFCC75"></path>
                    <g id="Group" transform="translate(3.714286, 6.151515)" fill="#193651" fill-opacity="0.653221241">
                        <path d="M1.76985714,12.8847146 C1.31735714,12.8847146 0.952571429,12.5059571 0.952571429,12.0467904 C0.952571429,11.5828636 1.322,11.2088662 1.76985714,11.2088662 C2.22235714,11.2088662 2.58714286,11.5876237 2.58714286,12.0467904 L3.51064286,12.0467904 C3.51064286,11.2277601 2.96578571,10.5318333 2.23157143,10.3235606 L2.23157143,9.50921717 L1.30807143,9.50921717 L1.30807143,10.3234874 C0.569285714,10.5317601 0.029,11.223 0.029,12.0467172 C0.029,13.031399 0.809357143,13.8315354 1.76985714,13.8315354 C2.22235714,13.8315354 2.58714286,14.2102929 2.58714286,14.6694596 C2.58714286,15.1286995 2.21771429,15.5073838 1.76985714,15.5073838 C1.31735714,15.5073838 0.952571429,15.1286263 0.952571429,14.6694596 L0.029,14.6694596 C0.029,15.4884899 0.573857143,16.1844167 1.30807143,16.3926894 L1.30807143,17.069649 L2.23157143,17.069649 L2.23157143,16.3926894 C2.97035714,16.1844167 3.51064286,15.4931768 3.51064286,14.6694596 C3.51064286,13.6895379 2.73028571,12.8847146 1.76985714,12.8847146 Z" id="Shape"></path>
                        <rect id="Rectangle-path" x="3.97707143" y="0.0313434343" width="7.59592857" height="1"></rect>
                        <rect id="Rectangle-path" x="0.486142857" y="3.06125758" width="14.5731429" height="1"></rect>
                        <rect id="Rectangle-path" x="0.486142857" y="6.09585859" width="14.5731429" height="1"></rect>
                        <polygon id="Shape" points="15.2347857 14.6931869 15.2347857 13.7463662 10.7372143 13.7463662 10.6864286 13.7463662 10.6864286 14.6931869 10.7372143 14.6931869"></polygon>
                        <polygon id="Shape" points="10.7372143 15.8767677 10.6864286 15.8767677 10.6864286 16.8235884 10.7372143 16.8235884 11.5222143 16.8235884 11.5684286 16.8235884 11.5684286 15.8767677 11.5222143 15.8767677"></polygon>
                        <polygon id="Shape" points="12.5427143 15.8767677 12.5196429 15.8767677 12.5196429 16.8235884 12.5427143 16.8235884 13.4246429 16.8235884 13.4431429 16.8235884 13.4431429 15.8767677 13.4246429 15.8767677"></polygon>
                        <polygon id="Shape" points="15.2347857 15.8767677 14.3527857 15.8767677 14.3297143 15.8767677 14.3297143 16.8235884 14.3527857 16.8235884 15.2347857 16.8235884 15.2532143 16.8235884 15.2532143 15.8767677"></polygon>
                    </g>
                </g>
            </g>
        </g>
    </g>
</svg>