<?xml version="1.0" encoding="UTF-8"?>
<svg width="28px" height="28px" viewBox="0 0 28 28" version="1.1" xmlns="http://www.w3.org/2000/svg" xmlns:xlink="http://www.w3.org/1999/xlink">
    <!-- Generator: Sketch 45.2 (43514) - http://www.bohemiancoding.com/sketch -->
    <title>high-school</title>
    <desc>Created with Sketch.</desc>
    <defs></defs>
    <g id="Super-Admin-Layout" stroke="none" stroke-width="1" fill="none" fill-rule="evenodd">
        <g id="S.A-Dashboard" transform="translate(-59.000000, -275.000000)" fill-rule="nonzero">
            <g id="1" transform="translate(-4.000000, 70.000000)">
                <g id="high-school" transform="translate(63.000000, 205.000000)">
                    <polygon id="Shape" fill="#FFCC75" points="6.07611924e-05 17.0132554 6.07611924e-05 27.6464641 27.6464033 27.6464641 27.6464033 17.0132554 13.823232 15.7980315"></polygon>
                    <rect id="Rectangle-path" fill="#F2484B" x="6.07611924e-05" y="14.5828077" width="27.6463425" height="2.4304477"></rect>
                    <polygon id="Shape" fill="#F2EBD9" points="6.68379193 10.876375 6.68379193 27.6464641 9.72185155 27.6464641 13.823232 26.4312402 17.9246125 27.6464641 20.9626721 27.6464641 20.9626721 10.876375 13.823232 9.66115111"></polygon>
                    <rect id="Rectangle-path" fill="#6DA8D6" x="13.823232" y="0.000121522385" width="4.89127599" height="2.61273127"></rect>
                    <rect id="Rectangle-path" fill="#082947" x="13.3675231" y="0" width="1" height="6.44068639"></rect>
                    <polygon id="Shape" fill="#6DA8D6" points="13.823232 19.2407607 14.430844 26.4312402 9.72185155 25.8236283 9.72185155 19.2407607"></polygon>
                    <polygon id="Shape" fill="#185F8D" points="17.9246125 19.2407607 17.9246125 25.8236283 13.823232 26.4312402 13.823232 19.2407607"></polygon>
                    <polygon id="Shape" fill="#FFCC75" points="17.9246125 25.8236283 17.9246125 27.6464641 9.72185155 27.6464641 9.72185155 25.8236283 13.823232 25.8236283"></polygon>
                    <path d="M13.823232,13.3068227 C14.7905502,13.3068227 15.5749772,14.0912497 15.5749772,15.0585678 C15.5749772,16.0264936 14.7905502,16.8109206 13.823232,16.8109206 C12.8559138,16.8109206 12.0714869,16.0264936 12.0714869,15.0585678 C12.0714869,14.0912497 12.8559138,13.3068227 13.823232,13.3068227 Z" id="Shape" fill="#98D9D5"></path>
                    <polygon id="Shape" fill="#F2484B" points="14.278941 5.58626251 13.3675231 5.58626251 6.68379193 10.876375 20.9626721 10.876375"></polygon>
                    <path d="M2.22793064,21.5196092 C1.97625778,21.5196092 1.7722217,21.3155731 1.7722217,21.0639003 L1.7722217,19.2410645 C1.7722217,18.9893917 1.97625778,18.7853556 2.22793064,18.7853556 C2.4796035,18.7853556 2.68363958,18.9893917 2.68363958,19.2410645 L2.68363958,21.0639003 C2.68363958,21.3155731 2.47966426,21.5196092 2.22793064,21.5196092 Z" id="Shape" fill="#FFFFFF"></path>
                    <path d="M4.45586128,21.5196092 C4.20418842,21.5196092 4.00015234,21.3155731 4.00015234,21.0639003 L4.00015234,19.2410645 C4.00015234,18.9893917 4.20418842,18.7853556 4.45586128,18.7853556 C4.70753414,18.7853556 4.91157023,18.9893917 4.91157023,19.2410645 L4.91157023,21.0639003 C4.91157023,21.3155731 4.7075949,21.5196092 4.45586128,21.5196092 Z" id="Shape" fill="#FFFFFF"></path>
                    <path d="M25.4184727,21.5196092 C25.1667998,21.5196092 24.9627637,21.3155731 24.9627637,21.0639003 L24.9627637,19.2410645 C24.9627637,18.9893917 25.1667998,18.7853556 25.4184727,18.7853556 C25.6701455,18.7853556 25.8741816,18.9893917 25.8741816,19.2410645 L25.8741816,21.0639003 C25.8741816,21.3155731 25.6702063,21.5196092 25.4184727,21.5196092 Z" id="Shape" fill="#FFFFFF"></path>
                    <path d="M23.190542,21.5196092 C22.9388692,21.5196092 22.7348331,21.3155731 22.7348331,21.0639003 L22.7348331,19.2410645 C22.7348331,18.9893917 22.9388692,18.7853556 23.190542,18.7853556 C23.4422149,18.7853556 23.646251,18.9893917 23.646251,19.2410645 L23.646251,21.0639003 C23.646251,21.3155731 23.4422756,21.5196092 23.190542,21.5196092 Z" id="Shape" fill="#FFFFFF"></path>
                </g>
            </g>
        </g>
    </g>
</svg>