<?xml version="1.0" encoding="UTF-8"?>
<svg width="28px" height="28px" viewBox="0 0 28 28" version="1.1" xmlns="http://www.w3.org/2000/svg" xmlns:xlink="http://www.w3.org/1999/xlink">
    <!-- Generator: Sketch 45.2 (43514) - http://www.bohemiancoding.com/sketch -->
    <title>speedometer</title>
    <desc>Created with Sketch.</desc>
    <defs></defs>
    <g id="Super-Admin-Layout" stroke="none" stroke-width="1" fill="none" fill-rule="evenodd">
        <g id="S.A-Dashboard" transform="translate(-59.000000, -156.000000)" fill-rule="nonzero">
            <g id="1" transform="translate(-4.000000, 70.000000)">
                <g id="speedometer" transform="translate(63.000000, 86.000000)">
                    <g id="Group" fill="#F2F2F2">
                        <circle id="Oval" cx="13.8761522" cy="13.8761522" r="13.8761522"></circle>
                    </g>
                    <path d="M26.0756207,13.8761522 L21.3345839,13.8761522 C21.3345839,12.4885369 20.9876801,11.2743736 20.3517079,10.1180457 C19.7157357,8.96171773 18.7328054,8.03662286 17.6343128,7.40065062 L20.0048041,3.29558614 C21.8549396,4.39413292 23.4160068,5.89736466 24.4567182,7.74750022 C25.4395942,9.59768997 26.0756207,11.6791128 26.0756207,13.8761522 Z" id="Shape" fill="#F8B64C"></path>
                    <path d="M26.0756207,13.8761522 C26.0756207,16.0731915 25.4974296,18.1546143 24.4567182,19.9469687 C23.4160068,21.7971043 21.8549396,23.3581714 20.0048041,24.3988828 L17.6342586,20.2938725 C18.7905866,19.6579003 19.7156814,18.67497 20.3516537,17.5764775 C20.9876801,16.4779307 21.3345839,15.205932 21.3345839,13.8183168 L26.0756207,13.8183168 L26.0756207,13.8761522 Z" id="Shape" fill="#FF7058"></path>
                    <path d="M10.1180457,7.40059641 C8.96171773,8.03656865 8.03662286,9.0194989 7.40065062,10.1179915 C6.76462417,11.2165383 6.41772037,12.4885369 6.41772037,13.8761522 L1.67668365,13.8761522 C1.67668365,11.6791128 2.25487472,9.59768997 3.29558614,7.80533559 C4.33629755,5.95520003 5.89736466,4.39413292 7.74750022,3.3534215 L10.1180457,7.40059641 Z" id="Shape" fill="#54C0EB"></path>
                    <path d="M10.1180457,20.3517079 L7.74750022,24.4567182 C5.89736466,23.4160068 4.33629755,21.8549396 3.29558614,20.0048041 C2.31271009,18.1546143 1.67668365,16.0731915 1.67668365,13.8761522 L6.41772037,13.8761522 C6.41772037,15.2637674 6.76462417,16.535766 7.40059641,17.6342586 C8.09440402,18.7328054 9.0194989,19.6579003 10.1180457,20.3517079 Z" id="Shape" fill="#84DBFF"></path>
                    <path d="M19.9469687,3.3534215 L17.5764775,7.45843178 C16.4779307,6.82245954 15.2059862,6.47555574 13.818371,6.47555574 C12.4307558,6.47555574 11.2165925,6.82245954 10.0602645,7.45843178 L7.68977326,3.3534215 C9.59774418,2.31271009 11.679167,1.67673785 13.8762064,1.67673785 C16.0732457,1.67673785 18.1546143,2.31271009 19.9469687,3.3534215 Z" id="Shape" fill="#FFD15C"></path>
                    <circle id="Oval" fill="#F2F2F2" cx="13.8761522" cy="13.8761522" r="7.45843178"></circle>
                    <path d="M14.801247,12.4885369 C15.4950546,13.0088926 15.6685065,13.9917687 15.2059862,14.6855763 C14.6856305,15.3793839 13.7027545,15.5528358 13.0089468,15.0903155 C12.3151392,14.5699598 8.26791013,9.88675841 8.26791013,9.88675841 C8.26791013,9.88675841 14.0496041,11.9681812 14.801247,12.4885369 Z" id="Shape" fill="#40596B"></path>
                    <circle id="Oval" fill="#FF7058" cx="13.8761522" cy="13.7605356" r="1"></circle>
                    <path d="M13.8761522,2.8330658 C20.4094891,2.8330658 25.7287169,7.97878749 26.0177853,14.4543432 C26.0177853,14.2808913 26.0756207,14.0496041 26.0756207,13.8761522 C26.0756207,7.16936335 20.6407763,1.67668365 13.8761522,1.67668365 C7.11152798,1.67668365 1.67668365,7.16936335 1.67668365,13.8761522 C1.67668365,14.0496041 1.67668365,14.2808913 1.73451902,14.4543432 C2.02358745,7.97878749 7.34281525,2.8330658 13.8761522,2.8330658 Z" id="Shape" fill="#40596B" opacity="0.15"></path>
                </g>
            </g>
        </g>
    </g>
</svg>