<?xml version="1.0" encoding="UTF-8"?>
<svg width="28px" height="28px" viewBox="0 0 28 28" version="1.1" xmlns="http://www.w3.org/2000/svg" xmlns:xlink="http://www.w3.org/1999/xlink">
    <!-- Generator: Sketch 45.2 (43514) - http://www.bohemiancoding.com/sketch -->
    <title>hierarchical-structure</title>
    <desc>Created with Sketch.</desc>
    <defs></defs>
    <g id="Super-Admin-Layout" stroke="none" stroke-width="1" fill="none" fill-rule="evenodd">
        <g id="S.A-Dashboard" transform="translate(-60.000000, -215.000000)" fill-rule="nonzero">
            <g id="1" transform="translate(-4.000000, 70.000000)">
                <g id="hierarchical-structure" transform="translate(64.000000, 145.000000)">
                    <polygon id="Shape" fill="#CDD6E0" points="23.6842115 16.5261247 23.6842115 19.592859 22.548392 19.592859 22.548392 17.6619441 14.1433386 17.6619441 14.1433386 19.3656734 13.0075735 19.3656734 13.0075735 17.6619441 4.60252015 17.6619441 4.60252015 19.592859 3.46670066 19.592859 3.46670066 16.5261247 13.0075735 16.5261247 13.0075735 14.8223954 14.1433386 14.8223954 14.1433386 16.5261247"></polygon>
                    <g id="Group" transform="translate(0.000000, 19.077072)" fill="#F2F2F2">
                        <path d="M8.12351708,4.09358084 C8.12351708,4.94541828 7.89633144,5.74051366 7.44201452,6.36521981 C7.10129041,6.81953674 6.70371554,7.21705726 6.24939862,7.55783571 C6.19260221,7.61463212 6.07900939,7.67142853 6.02221298,7.72822494 C5.45430324,8.06894905 4.77280067,8.23933828 4.03455605,8.23933828 C3.35305349,8.23933828 2.67155092,8.06894905 2.10364118,7.72822494 C2.04684477,7.67142853 1.93325195,7.61463212 1.87645554,7.55783571 C1.42213861,7.27390802 0.967821689,6.87633315 0.683839641,6.36521981 C0.229577066,5.74051366 0.0024457784,4.94547263 0.0024457784,4.09358084 C0.0024457784,1.82194186 1.81976783,0.00461980365 4.09140681,0.00461980365 C6.30624938,-0.0521222553 8.12351708,1.82194186 8.12351708,4.09358084 Z" id="Shape"></path>
                        <circle id="Oval" cx="23.1163017" cy="4.09358084" r="4.08896103"></circle>
                        <path d="M17.6643899,4.09358084 C17.6643899,5.00221469 17.3804622,5.85410648 16.8692945,6.53560904 C16.1309956,7.55783571 14.9383797,8.23933828 13.5754289,8.23933828 C12.2124781,8.23933828 11.0198622,7.55783571 10.2815632,6.53560904 C9.77044991,5.85410648 9.48646786,5.00226904 9.48646786,4.09358084 C9.48646786,1.82194186 11.3037899,0.00461980365 13.5754289,0.00461980365 C15.8470679,0.00461980365 17.6643899,1.82194186 17.6643899,4.09358084 Z" id="Shape"></path>
                    </g>
                    <path d="M16.8693489,25.5558842 C16.1310499,26.5781108 14.938434,27.2596134 13.5754832,27.2596134 C12.2125325,27.2596134 11.0199166,26.5781108 10.2816176,25.5558842 C10.4520068,25.3854949 10.6223417,25.3286985 10.7927309,25.2151601 C11.3606407,24.9879744 12.0989396,24.6472503 12.4396638,24.4200647 C12.4964602,24.4200647 12.4964602,24.3632683 12.5532566,24.3632683 C12.5532566,24.3632683 12.610053,23.7385621 12.610053,23.6817657 C12.610053,23.6817657 12.2693289,23.1706524 12.0989396,22.7163354 L12.0989396,22.7163354 C11.9853468,22.7163354 11.871754,22.5459462 11.8150119,22.2620185 C11.7582155,21.9780908 11.8150119,21.7509052 11.9286048,21.7509052 L11.9286048,21.7509052 C11.8718084,21.1829954 11.8150119,19.592859 13.632334,19.592859 C15.3928596,19.592859 15.3928596,21.1829954 15.3360632,21.7509052 L15.3360632,21.7509052 C15.4496561,21.7509052 15.5064525,22.0348329 15.4496561,22.2620185 C15.3928596,22.5459462 15.2792668,22.7163354 15.1657284,22.7163354 L15.1657284,22.7163354 C14.9953391,23.1706524 14.654615,23.6817657 14.654615,23.6817657 C14.654615,23.7385621 14.7114114,24.3632683 14.7114114,24.3632683 C14.7682078,24.3632683 14.7682078,24.4200647 14.8250043,24.4200647 C15.1089319,24.6472503 15.9040273,24.9879744 16.4719371,25.2151601 C16.5285704,25.3286985 16.7557561,25.4422913 16.8693489,25.5558842 Z" id="Shape" fill="#FF7058"></path>
                    <path d="M7.32847605,25.5558842 C6.59017708,26.5781108 5.39756118,27.2596134 4.0346104,27.2596134 C2.67165962,27.2596134 1.47904372,26.5781108 0.740744752,25.5558842 C0.91113398,25.3854949 1.08146886,25.3286985 1.25185809,25.2151601 C1.81976783,24.9879744 2.5580668,24.6472503 2.89879091,24.4200647 C2.95558732,24.4200647 2.95558732,24.3632683 3.01238373,24.3632683 C3.01238373,24.3632683 3.06918014,23.7385621 3.06918014,23.6817657 C3.06918014,23.6817657 2.72845603,23.1706524 2.5580668,22.7163354 L2.5580668,22.7163354 C2.44447399,22.7163354 2.33088117,22.5459462 2.27413911,22.2620185 C2.2173427,21.9780908 2.27413911,21.7509052 2.38773193,21.7509052 L2.38773193,21.7509052 C2.33093552,21.1829954 2.27413911,19.592859 4.09146116,19.592859 C5.8519868,19.592859 5.8519868,21.1829954 5.79519039,21.7509052 L5.79519039,21.7509052 C5.90878321,21.7509052 5.96557962,22.0348329 5.90878321,22.2620185 C5.8519868,22.5459462 5.73839399,22.7163354 5.62485552,22.7163354 L5.62485552,22.7163354 C5.45446629,23.1706524 5.11374218,23.6817657 5.11374218,23.6817657 C5.11374218,23.7385621 5.17053859,24.3632683 5.17053859,24.3632683 C5.227335,24.3632683 5.227335,24.4200647 5.28413141,24.4200647 C5.62485552,24.6472503 6.36315449,24.9879744 6.93106423,25.2151601 C7.044494,25.3286985 7.21488323,25.4422913 7.32847605,25.5558842 Z" id="Shape" fill="#CDD6E0"></path>
                    <path d="M26.4101674,25.5558842 C25.6718684,26.5781108 24.4792525,27.2596134 23.1163017,27.2596134 C21.7532966,27.2596134 20.5607351,26.5781108 19.8224361,25.5558842 C19.9928253,25.3854949 20.1631602,25.3286985 20.3335494,25.2151601 C20.9014592,24.9879744 21.6397581,24.6472503 21.9804822,24.4200647 C22.0372787,24.4200647 22.0372787,24.3632683 22.0940751,24.3632683 C22.0940751,24.3632683 22.1508715,23.7385621 22.1508715,23.6817657 C22.1508715,23.6817657 21.8101474,23.1706524 21.6397581,22.7163354 L21.6397581,22.7163354 C21.5261653,22.7163354 21.4125725,22.5459462 21.3558304,22.2620185 C21.299034,21.9780908 21.3558304,21.7509052 21.4694233,21.7509052 L21.4694233,21.7509052 C21.4126268,21.1829954 21.3558304,19.592859 23.1731525,19.592859 C24.9336781,19.592859 24.9336781,21.1829954 24.8768817,21.7509052 L24.8768817,21.7509052 C24.9904745,21.7509052 25.047271,22.0348329 24.9904745,22.2620185 C24.9336781,22.5459462 24.8200853,22.7163354 24.7065468,22.7163354 L24.7065468,22.7163354 C24.5361576,23.1706524 24.1954335,23.6817657 24.1954335,23.6817657 C24.1954335,23.7385621 24.2522299,24.3632683 24.2522299,24.3632683 C24.2522299,24.3632683 24.3090263,24.4200647 24.3658227,24.4200647 C24.6497504,24.6472503 25.4448458,24.9879744 26.0127556,25.2151601 C26.0694433,25.3286985 26.2398325,25.4422913 26.4101674,25.5558842 Z" id="Shape" fill="#84DBFF"></path>
                    <path d="M14.1433386,14.8223954 L14.1433386,16.0150113 C14.0865422,16.0150113 14.0865422,16.0150113 14.0297458,16.0150113 L13.9729494,16.0150113 C13.8593566,16.0150113 13.7457638,16.0150113 13.5754289,16.0150113 C13.4050397,16.0150113 13.2915012,16.0150113 13.121112,16.0150113 C13.0643156,16.0150113 13.0075191,16.0150113 13.0075191,16.0150113 L13.0075191,14.8223954 L14.1433386,14.8223954 Z" id="Shape" fill="#B8CAD8"></path>
                    <path d="M21.1286448,7.55316156 C21.1286448,9.14329797 20.6175315,10.6198416 19.7656397,11.8692539 C19.481712,12.2667744 19.1409335,12.6643493 18.743413,13.0618698 C17.4940007,14.2544857 15.7902715,15.0495267 13.9162073,15.1631195 L13.9162073,15.1631195 C13.8026145,15.1631195 13.6322797,15.1631195 13.5186868,15.1631195 C13.405094,15.1631195 13.2347591,15.1631195 13.1211663,15.1631195 C11.2470479,15.0495267 9.54331862,14.3112821 8.29396066,13.0618698 C7.89644014,12.7211457 7.6124581,12.3235708 7.27173399,11.8692539 C6.41989655,10.6198416 5.90872886,9.14329797 5.90872886,7.55316156 C5.90867451,3.35066206 9.31613298,0 13.4618904,0 C17.7779827,0 21.1286448,3.40745847 21.1286448,7.55316156 Z" id="Shape" fill="#ACB3BA"></path>
                    <g id="Group" transform="translate(10.326620, 4.565453)" fill="#F8B64C">
                        <ellipse id="Oval" transform="translate(0.557598, 0.934445) rotate(-101.308809) translate(-0.557598, -0.934445) " cx="0.55751513" cy="0.896794472" rx="1" ry="1"></ellipse>
                        <ellipse id="Oval" transform="translate(5.934122, 0.954470) rotate(-168.691191) translate(-5.934122, -0.954470) " cx="5.89646409" cy="0.954654633" rx="1" ry="1"></ellipse>
                    </g>
                    <path d="M19.8224361,11.8693082 C19.5385084,12.2668287 19.1977299,12.6644036 18.8002094,13.0619241 C17.5507971,14.25454 15.8470679,15.0495811 13.9730038,15.1631739 L13.1779084,15.1631739 C11.3037899,15.0495811 9.60006068,14.3113364 8.35070272,13.0619241 C7.9531822,12.7212 7.66920016,12.3236252 7.32847605,11.8693082 C7.44206887,11.5285841 7.61240375,11.2446021 7.78279298,11.0174708 C7.78279298,11.0174708 7.83958938,11.0174708 7.89638579,10.9606744 L7.89638579,10.9606744 L7.89638579,10.9606744 C8.00997861,10.903878 8.29390631,10.8470816 8.57788836,10.6767467 C9.25939092,10.392819 10.2248212,9.99524412 11.0199166,9.54092719 C11.1335094,9.48413078 11.3038443,9.37053796 11.4174371,9.31374155 C11.5310299,9.25694514 11.6446227,9.14335232 11.7581612,9.08655591 L11.7581612,9.08655591 L11.871754,8.57544258 C11.871754,8.57544258 12.3260709,9.48407643 13.2915012,9.59766925 C13.3482976,9.59766925 13.4618904,9.59766925 13.5186868,9.59766925 L13.6322797,9.59766925 C13.7458725,9.59766925 13.8594653,9.59766925 13.9730038,9.59766925 L13.9730038,9.59766925 C14.0298002,9.59766925 14.0865966,9.59766925 14.143393,9.54087284 C14.2001894,9.54087284 14.2569858,9.48407643 14.3137822,9.48407643 C14.427375,9.42728002 14.4841714,9.42728002 14.5409679,9.37048361 C14.5977643,9.37048361 14.6545607,9.3136872 14.7113571,9.25689079 C14.8249499,9.20009438 14.8817463,9.14329797 14.9385427,9.08650156 C15.0521355,8.97290874 15.1089319,8.91611234 15.1657284,8.85931593 C15.2793212,8.6889267 15.3361176,8.57538823 15.3361176,8.57538823 L15.4497104,9.08650156 C16.5287335,9.88159695 18.7435761,10.7334344 19.3114858,10.96062 C19.3682822,10.96062 19.4250786,11.0174164 19.4250786,11.0174164 C19.5385084,11.2446021 19.6521012,11.5853262 19.8224361,11.8693082 Z" id="Shape" fill="#CDD6E0"></path>
                    <path d="M11.9284961,10.6766923 L12.382813,11.4717877 L13.0075191,10.5063575 L12.8371299,10.3359682 L12.3260166,11.0742672 L11.7581068,9.99524412 C11.8149576,10.165579 11.8149576,10.3927103 11.9284961,10.6766923 Z" id="Shape" fill="#ACB3BA"></path>
                    <path d="M15.2791581,8.63218464 C15.2791581,8.63218464 14.8248412,9.54081849 13.8594109,9.65441131 C13.7458181,9.65441131 13.6322253,9.65441131 13.5186868,9.65441131 C13.405094,9.65441131 13.2915012,9.65441131 13.1779627,9.65441131 C12.2125325,9.54081849 11.7582155,8.63218464 11.7582155,8.63218464 C11.7582155,8.63218464 11.7582155,8.46179541 11.7582155,8.29146053 C11.7582155,8.17786771 11.7582155,8.1210713 11.7582155,8.00753283 C12.5533109,9.02975951 13.4619448,9.14335232 13.4619448,9.14335232 C13.4619448,9.14335232 14.3705786,8.9729631 15.165674,8.00753283 C15.165674,8.06432924 15.165674,8.17792206 15.165674,8.29151488 C15.2791581,8.40505335 15.2791581,8.63218464 15.2791581,8.63218464 Z" id="Shape" fill="#F8B64C"></path>
                    <path d="M15.2791581,8.23466412 C14.4840627,9.08650156 13.6890217,9.25689079 13.6322253,9.25689079 L13.6322253,9.25689079 L13.6322253,9.25689079 C13.5754289,9.25689079 12.7235914,9.08650156 11.9852925,8.23466412 C11.9852925,8.1210713 11.9852925,8.06427489 11.9852925,7.95068207 C12.7803879,8.97290874 13.6890217,9.08650156 13.6890217,9.08650156 C13.6890217,9.08650156 14.5976556,8.91611234 15.3927509,7.95068207 C15.2791581,8.06432924 15.2791581,8.1210713 15.2791581,8.23466412 Z" id="Shape" fill="#F7AF48"></path>
                    <path d="M16.4149776,4.77040924 C16.4149776,4.94079847 16.3581812,5.05433694 16.3581812,5.05433694 C15.8470679,8.74572311 13.5186325,9.14329797 13.5186325,9.14329797 C13.5186325,9.14329797 11.1901971,8.74577746 10.6790838,5.05433694 C10.6790838,5.05433694 10.6790838,4.94074412 10.6222873,4.77040924 L10.6222873,4.77040924 C10.5086945,3.86177539 10.3951017,1.02222667 13.4618361,1.07902308 C16.6421633,0.965430261 16.5853668,3.80497898 16.4149776,4.77040924 Z" id="Shape" fill="#FFD15C"></path>
                    <path d="M19.3113227,11.0742128 L18.8002094,13.0618698 C17.5507971,14.2544857 15.8470679,15.0495267 13.9730038,15.1631195 L13.5754832,15.1631195 L13.5754832,14.1976893 C13.6322797,14.0840964 13.6890761,13.9705036 13.7458725,13.8001687 C13.8594653,13.5162411 14.0298545,13.232259 14.143393,13.0050734 C14.143393,12.948277 14.2001894,12.948277 14.2001894,12.8914805 C14.5409135,12.2667744 14.7680991,11.7556611 14.7680991,11.7556611 C14.9384884,11.3581405 15.1088232,11.0173621 15.2224161,10.676638 C15.2792125,10.5630452 15.2792125,10.3927103 15.3360089,10.2791175 C15.5063981,9.48402208 15.3928053,9.08650156 15.3928053,9.08650156 L15.3928053,9.08650156 C16.4718284,9.88159695 18.6866709,10.7334344 19.2545807,10.96062 L19.3113227,11.0742128 Z" id="Shape" fill="#40596B"></path>
                    <path d="M15.2224161,10.6766923 L14.7680991,11.4717877 L14.143393,10.5063575 L14.3137822,10.3359682 L14.8248955,11.0742672 L15.3928053,9.99524412 C15.3927509,10.165579 15.3359545,10.3927103 15.2224161,10.6766923 Z" id="Shape" fill="#ACB3BA"></path>
                    <path d="M13.8594109,10.7902851 L14.200135,12.8915349 C13.9729494,13.2890554 13.7458181,13.8001687 13.5754289,14.1977436 C13.4050397,13.8002231 13.121112,13.2891098 12.9507227,12.8915349 L13.2914468,10.7902851 L12.8371299,10.2791718 L13.2346504,9.59766925 L13.2346504,9.59766925 C13.3482433,9.59766925 13.4618361,9.59766925 13.5753745,9.59766925 C13.6889674,9.59766925 13.8025602,9.59766925 13.9160986,9.59766925 L13.9160986,9.59766925 L14.3136192,10.2791718 L13.8594109,10.7902851 Z" id="Shape" fill="#FFFFFF"></path>
                    <g id="Group" transform="translate(7.826491, 1.032662)" fill="#334A5E">
                        <path d="M6.14651287,14.1305119 L6.14651287,14.1305119 L5.74899236,14.1305119 C5.63539954,14.1305119 5.46506466,14.1305119 5.35147184,14.1305119 C3.47735338,14.0169191 1.77362415,13.2786744 0.524266188,12.0292621 L0.0131528527,10.0416052 L0.126745672,9.9848088 L0.126745672,9.9848088 L0.126745672,9.9848088 C0.240338491,9.92801239 0.524266188,9.87121598 0.808248236,9.75762316 C1.4897508,9.47364111 2.45518106,9.07612059 3.25027644,8.62180367 C3.36386926,8.56500726 3.53420414,8.45141444 3.64779696,8.39461803 C3.76138978,8.33782162 3.8749826,8.2242288 3.98852107,8.16743239 L3.98852107,8.16743239 C3.98852107,8.16743239 3.87492825,8.56495291 4.04531747,9.36004829 C4.04531747,9.47364111 4.10211388,9.58723393 4.15891029,9.75756881 C4.27250311,10.0982929 4.38609593,10.4390714 4.61322722,10.8365919 C4.61322722,10.8365919 4.89720927,11.3477052 5.18113696,11.9724114 C5.18113696,12.0292078 5.23793337,12.0292078 5.23793337,12.0860042 C5.35152619,12.3699319 5.52191542,12.6539139 5.63545389,12.8810996 C5.6922503,12.9946924 5.74904671,13.1650273 5.80584312,13.2786201 C5.97612365,13.6193986 6.14651287,13.9601227 6.14651287,14.1305119 Z" id="Shape"></path>
                        <path d="M8.58848673,3.73774725 L8.47489391,3.85134007 C8.47489391,3.85134007 8.36130109,2.37479648 7.67979853,1.2957734 C7.67979853,1.2957734 7.2254816,1.92047955 5.74888366,1.92047955 C4.21554365,1.92047955 3.81796878,1.2957734 3.81796878,1.2957734 C3.13646622,2.31800007 3.0228734,3.85134007 3.0228734,3.85134007 L2.90928058,3.73774725 L2.90928058,3.73774725 C2.79568776,2.8291134 2.68209494,-0.0104353212 5.74882931,0.0463610884 C8.81567237,-0.0672317307 8.75887596,2.77231699 8.58848673,3.73774725 Z" id="Shape"></path>
                    </g>
                </g>
            </g>
        </g>
    </g>
</svg>