<?xml version="1.0" encoding="UTF-8"?>
<svg width="27px" height="24px" viewBox="0 0 27 24" version="1.1" xmlns="http://www.w3.org/2000/svg" xmlns:xlink="http://www.w3.org/1999/xlink">
    <!-- Generator: Sketch 45.2 (43514) - http://www.bohemiancoding.com/sketch -->
    <title>post-it</title>
    <desc>Created with Sketch.</desc>
    <defs></defs>
    <g id="Super-Admin-Layout" stroke="none" stroke-width="1" fill="none" fill-rule="evenodd">
        <g id="S.A-Dashboard" transform="translate(-60.000000, -337.000000)" fill-rule="nonzero">
            <g id="1" transform="translate(-4.000000, 70.000000)">
                <g id="post-it" transform="translate(64.000000, 267.000000)">
                    <path d="M18.6586845,3.87474627 L1.43493907,3.87474627 C0.642473085,3.87474627 0,4.51716669 0,5.30963267 L0,22.5333781 C0,23.3258967 0.642473085,23.9683171 1.43493907,23.9683171 L18.6586845,23.9683171 C19.4512031,23.9683171 20.0936235,23.3258441 20.0936235,22.5333781 L20.0936235,5.30963267 C20.0936235,4.51716669 19.4511505,3.87474627 18.6586845,3.87474627 Z" id="Shape" fill="#FFCA66"></path>
                    <path d="M18.6586845,3.87474627 L1.43493907,3.87474627 C1.33113429,3.87474627 1.22991015,3.88601681 1.13231997,3.90703056 L1.13231997,20.6195993 C1.13231997,22.0976719 2.33484378,23.3002484 3.81286367,23.3002484 L19.8713728,23.3002484 C20.0119385,23.078419 20.0936235,22.8156154 20.0936235,22.5335361 L20.0936235,5.30963267 C20.0936235,4.51716669 19.4511505,3.87474627 18.6586845,3.87474627 Z" id="Shape" fill="#333333" opacity="0.15"></path>
                    <path d="M21.0366617,1.96080953 L3.81286367,1.96080953 C3.02034502,1.96080953 2.3779246,2.60328261 2.3779246,3.39574859 L2.3779246,20.619494 C2.3779246,21.4120126 3.02039769,22.0544331 3.81286367,22.0544331 L21.0366091,22.0544331 C21.8291277,22.0544331 22.4715481,21.41196 22.4715481,20.619494 L22.4715481,3.39580126 C22.4716008,2.60328261 21.8291804,1.96080953 21.0366617,1.96080953 Z" id="Shape" fill="#FFDC99"></path>
                    <path d="M21.0366617,1.96080953 L3.812969,1.96080953 C3.70916423,1.96080953 3.60794009,1.97208006 3.51034991,1.99309381 L3.51034991,18.7055573 C3.51034991,20.1836298 4.71287372,21.3862063 6.19089361,21.3862063 L22.2494028,21.3862063 C22.3899684,21.1643769 22.4716535,20.9015733 22.4716535,20.619494 L22.4716535,3.39580126 C22.4716008,2.60328261 21.8291804,1.96080953 21.0366617,1.96080953 Z" id="Shape" fill="#333333" opacity="0.15"></path>
                    <path d="M23.414639,0.0469254462 L6.19089361,0.0469254462 C5.39837496,0.0469254462 4.75595454,0.689398531 4.75595454,1.48186451 L4.75595454,18.7056099 C4.75595454,19.4981286 5.39842763,20.140549 6.19089361,20.140549 L23.414639,20.140549 C24.2071577,20.140549 24.8495781,19.4980759 24.8495781,18.7056099 L24.8495781,1.48186451 C24.8496307,0.689345865 24.2071577,0.0469254462 23.414639,0.0469254462 Z" id="Shape" fill="#FFEECC"></path>
                    <polygon id="Shape" fill="#85A1A6" points="16.8024697 9.99585737 21.1385179 7.50575409 21.9608982 8.93769119 16.8025224 11.9000509"></polygon>
                    <ellipse id="Oval" fill="#FF99AA" transform="translate(20.151154, 9.025302) rotate(-29.867114) translate(-20.151154, -9.025302) " cx="20.1511536" cy="9.02530236" rx="1.36181306" ry="3.57335701"></ellipse>
                    <path d="M24.2279081,3.7880053 L19.7044741,6.38575797 C19.26071,6.64060897 19.460841,7.82217169 20.1515035,9.0246955 C20.842166,10.2273246 21.7617679,10.9956169 22.2055846,10.7407132 L26.7290186,8.1429079 L24.2279081,3.7880053 Z" id="Shape" fill="#D9576D"></path>
                    <path d="M16.8025224,13.6997023 C16.5444588,13.6997023 16.3353746,13.4905655 16.3353746,13.2325545 L16.3353746,8.07628536 C16.3353746,7.81832707 16.5444588,7.60913754 16.8025224,7.60913754 C17.060586,7.60913754 17.2696702,7.8182744 17.2696702,8.07628536 L17.2696702,13.2325545 C17.2696702,13.4905655 17.0605333,13.6997023 16.8025224,13.6997023 Z" id="Shape" fill="#FFCA66"></path>
                    <ellipse id="Oval" fill="#FF99AA" transform="translate(25.478396, 5.965829) rotate(-29.867114) translate(-25.478396, -5.965829) " cx="25.4783957" cy="5.9658292" rx="1" ry="2.51137772"></ellipse>
                </g>
            </g>
        </g>
    </g>
</svg>