<?xml version="1.0" encoding="UTF-8"?>
<svg width="21px" height="40px" viewBox="0 0 21 40" version="1.1" xmlns="http://www.w3.org/2000/svg" xmlns:xlink="http://www.w3.org/1999/xlink">
    <!-- Generator: Sketch 45.2 (43514) - http://www.bohemiancoding.com/sketch -->
    <title>Logo App</title>
    <desc>Created with Sketch.</desc>
    <defs></defs>
    <g id="Super-Admin-Layout" stroke="none" stroke-width="1" fill="none" fill-rule="evenodd">
        <g id="S.A-News" transform="translate(-49.000000, -16.000000)" fill="#0294FF">
            <g id="Logo-App" transform="translate(49.000000, 16.000000)">
                <polygon id="Fill-10" points="4.06968682 39.7523385 16.7508326 39.7523385 16.7508326 38.655872 4.06968682 38.655872"></polygon>
                <polygon id="Fill-12" points="5.00613842 38.2374854 15.8286384 38.2374854 15.8286384 37.2809795 5.00613842 37.2809795"></polygon>
                <polygon id="Fill-5" points="6.11377033 36.7927994 7.47254235 36.7927994 7.47254235 31.3477932 6.11377033 31.3477932"></polygon>
                <polygon id="Fill-6" points="8.53172615 36.7927994 9.89058899 36.7927994 9.89058899 31.3477932 8.53172615 31.3477932"></polygon>
                <polygon id="Fill-7" points="10.9411911 36.7927994 12.3000993 36.7927994 12.3000993 31.3477932 10.9411911 31.3477932"></polygon>
                <polygon id="Fill-8" points="13.430752 36.792706 14.7895694 36.792706 14.7895694 31.3477932 13.430752 31.3477932"></polygon>
                <polygon id="Fill-4" points="5.10103678 30.6855034 4.65910101 29.7289975 16.1767656 29.7289975 15.685746 30.6855034"></polygon>
                <path d="M10.0956875,9.76402156 C10.0956875,12.1326525 10.1097633,15.155398 10.0796138,17.5241224 C10.0796138,17.5241224 9.83038074,17.6246548 9.70855667,17.7102848 C8.88561986,18.3638388 8.31037231,19.1420305 8.59365982,20.0063194 C8.84579887,20.7823155 9.59313483,21.3011411 10.4109408,21.2751204 C11.2388722,21.2440544 11.9559225,20.6277797 12.1464003,19.7842325 C12.3369689,18.9355 11.6729074,18.1460498 10.7624734,17.6282986 C10.6927299,17.5899449 10.6262102,17.5422014 10.5385314,17.4861425 L10.5385314,0.0193403391 C13.1463294,6.78803857 15.5770896,13.6131228 20.5969407,18.7934373 C15.2008562,26.2947326 14.7925208,26.9690284 14.3185739,29.1218323 L6.35905308,29.1218323 C5.1448989,25.0652196 2.37677266,22.0387368 0,18.7508792 C3.59496797,15.2752707 5.57253181,10.7579001 7.47844512,6.20638021 C8.28925856,4.26622653 9.23247565,2.27421832 9.97872187,0.30706292 L10.0956875,0.0242454975 L10.0956875,9.76402156 Z" id="Fill-1"></path>
            </g>
        </g>
    </g>
</svg>